<svg width="26" height="26" viewBox="0 0 26 26" fill="none" xmlns="http://www.w3.org/2000/svg">
<path fill-rule="evenodd" clip-rule="evenodd" d="M1.49449 1.49363C1.84612 1.142 2.32303 0.944458 2.82031 0.944458C3.31759 0.944458 3.79451 1.142 4.14614 1.49363L14.7527 12.1002C15.1044 12.4519 15.3019 12.9288 15.3019 13.4261C15.3019 13.9233 15.1044 14.4003 14.7527 14.7519L4.14614 25.3585C3.79451 25.7101 3.31759 25.9077 2.82031 25.9077C2.32303 25.9077 1.84612 25.7101 1.49449 25.3585C1.14286 25.0069 0.945312 24.5299 0.945312 24.0327C0.945312 23.5354 1.14286 23.0585 1.49449 22.7068L10.7753 13.4261L1.49449 4.14528C1.14286 3.79365 0.945312 3.31674 0.945312 2.81946C0.945312 2.32218 1.14286 1.84526 1.49449 1.49363Z" fill="url(#paint0_linear_116_391)"/>
<path fill-rule="evenodd" clip-rule="evenodd" d="M12.1014 14.7519C11.7498 14.4003 11.5522 13.9233 11.5522 13.4261C11.5522 12.9288 11.7498 12.4519 12.1014 12.1002L22.708 1.49363C23.0596 1.142 23.5366 0.944459 24.0338 0.944459C24.5311 0.944459 25.008 1.142 25.3597 1.49363C25.7113 1.84526 25.9088 2.32218 25.9088 2.81946C25.9088 3.31674 25.7113 3.79365 25.3597 4.14528L16.0789 13.4261L25.3597 22.7068C25.7113 23.0585 25.9088 23.5354 25.9088 24.0327C25.9088 24.5299 25.7113 25.0069 25.3597 25.3585C25.008 25.7101 24.5311 25.9077 24.0338 25.9077C23.5366 25.9077 23.0596 25.7101 22.708 25.3585L12.1014 14.7519Z" fill="url(#paint1_linear_116_391)"/>
<defs>
<linearGradient id="paint0_linear_116_391" x1="-4.4522" y1="-14.6575" x2="32.3977" y2="-6.49943" gradientUnits="userSpaceOnUse">
<stop stop-color="#976464"/>
<stop offset="1" stop-color="#CFA5A5"/>
</linearGradient>
<linearGradient id="paint1_linear_116_391" x1="-4.4522" y1="-14.6575" x2="32.3977" y2="-6.49943" gradientUnits="userSpaceOnUse">
<stop stop-color="#976464"/>
<stop offset="1" stop-color="#CFA5A5"/>
</linearGradient>
</defs>
</svg>
