<svg width="20" height="20" viewBox="0 0 20 20" fill="none" xmlns="http://www.w3.org/2000/svg">
<path d="M7.73388 10C7.73388 10.5802 7.96435 11.1366 8.37458 11.5468C8.78482 11.957 9.34122 12.1875 9.92138 12.1875C10.5015 12.1875 11.0579 11.957 11.4682 11.5468C11.8784 11.1366 12.1089 10.5802 12.1089 10C12.1089 9.41984 11.8784 8.86344 11.4682 8.4532C11.0579 8.04297 10.5015 7.8125 9.92138 7.8125C9.34122 7.8125 8.78482 8.04297 8.37458 8.4532C7.96435 8.86344 7.73388 9.41984 7.73388 10ZM18.4018 9.49609C16.5503 5.5957 13.7515 3.63281 9.9995 3.63281C6.2456 3.63281 3.44872 5.5957 1.59716 9.49805C1.52289 9.65531 1.48438 9.82706 1.48438 10.001C1.48438 10.1749 1.52289 10.3466 1.59716 10.5039C3.44872 14.4043 6.24755 16.3672 9.9995 16.3672C13.7534 16.3672 16.5503 14.4043 18.4018 10.502C18.5522 10.1855 18.5522 9.81836 18.4018 9.49609ZM9.92138 13.4375C8.02294 13.4375 6.48388 11.8984 6.48388 10C6.48388 8.10156 8.02294 6.5625 9.92138 6.5625C11.8198 6.5625 13.3589 8.10156 13.3589 10C13.3589 11.8984 11.8198 13.4375 9.92138 13.4375Z" fill="#BDBDBD"/>
</svg>
