<svg width="24" height="25" viewBox="0 0 24 25" fill="none" xmlns="http://www.w3.org/2000/svg">
<path d="M12.0088 0.683476C5.38095 0.677898 0.00509419 6.04635 -0.000483938 12.6742C-0.00606206 19.302 5.36239 24.6779 11.9902 24.6835C18.6172 24.6779 23.9893 19.3104 23.9995 12.6835C23.9995 6.05934 18.6329 0.689054 12.0088 0.683476ZM11.9902 22.6866C6.46578 22.6866 1.98716 18.2079 1.98716 12.6835C1.98716 7.15902 6.46578 2.6804 11.9902 2.6804C17.5128 2.68598 21.9877 7.1609 21.9933 12.6835C21.9933 18.2079 17.5147 22.6866 11.9902 22.6866Z" fill="url(#paint0_linear_32_2803)"/>
<path d="M15.231 12.0986C16.0335 11.6463 16.4673 10.7407 16.3177 9.83233C16.132 8.42988 14.4602 7.90043 13.1412 7.78901V5.68066H11.8409V7.77044H10.9679V5.68066H9.66758V7.77044H7.04834V9.11721H8.02358C8.46012 9.11721 8.67373 9.24724 8.67373 9.60016V15.3866C8.67373 15.8695 8.43223 16.0181 8.17217 16.0181H7.17837V17.3928H9.7047V19.529H11.0143V17.3928H11.8873V19.529H13.1598V17.3928H13.4384C16.1134 17.3928 17.005 16.0832 17.005 14.2999C16.9836 13.2484 16.2545 12.3438 15.231 12.0986ZM10.9678 9.20079H11.8966C12.5468 9.20079 13.8285 9.31226 13.8285 10.3711C13.8731 11.0621 13.3725 11.6677 12.6861 11.755H10.9678V9.20079ZM12.4075 15.8881V15.8788H10.9678V13.0924H12.6397C13.0298 13.0924 14.4972 13.2224 14.4972 14.2627C14.4972 15.3029 13.8007 15.8881 12.4075 15.8881Z" fill="url(#paint1_linear_32_2803)"/>
<defs>
<linearGradient id="paint0_linear_32_2803" x1="13.1995" y1="-3.09431" x2="14.5536" y2="39.4212" gradientUnits="userSpaceOnUse">
<stop stop-color="#FD749B"/>
<stop offset="1" stop-color="#281AC8"/>
</linearGradient>
<linearGradient id="paint1_linear_32_2803" x1="12.5245" y1="3.50084" x2="13.6102" y2="28.0096" gradientUnits="userSpaceOnUse">
<stop stop-color="#FD749B"/>
<stop offset="1" stop-color="#281AC8"/>
</linearGradient>
</defs>
</svg>

