<svg width="12" height="12" viewBox="0 0 12 12" fill="none" xmlns="http://www.w3.org/2000/svg">
<path d="M5.74588 10.9408L3.54587 11.8408C3.04587 12.0408 2.44588 11.8408 2.24588 11.3408C2.14588 11.1408 2.14588 11.0408 2.14588 10.8408L2.34587 8.44082C2.34587 8.14082 2.24588 7.94082 2.14588 7.74082L0.545875 5.94082C0.245875 5.54082 0.245875 4.84082 0.645875 4.54082C0.845875 4.44082 0.945875 4.34082 1.14588 4.34082L3.44588 3.84082C3.74588 3.74082 3.94587 3.64082 4.04587 3.34082L5.24588 1.34082C5.54588 0.84082 6.14587 0.74082 6.64587 1.04082C6.74587 1.14082 6.94588 1.24082 6.94588 1.34082L8.14587 3.34082C8.24587 3.54082 8.54588 3.74082 8.74588 3.84082L11.1459 4.34082C11.6459 4.44082 12.0459 5.04082 11.8459 5.54082C11.8459 5.74082 11.7459 5.84082 11.6459 5.94082L10.1459 7.74082C9.94588 7.94082 9.84587 8.24082 9.94587 8.44082L10.1459 10.8408C10.1459 11.4408 9.74588 11.8408 9.24588 11.9408C9.04588 11.9408 8.94588 11.9408 8.74588 11.8408L6.54587 10.9408C6.24587 10.8408 6.04588 10.8408 5.74588 10.9408Z" fill="url(#paint0_linear_32_2813)"/>
<defs>
<linearGradient id="paint0_linear_32_2813" x1="6.69357" y1="-0.870233" x2="7.29123" y2="18.7395" gradientUnits="userSpaceOnUse">
<stop stop-color="#FD749B"/>
<stop offset="1" stop-color="#281AC8"/>
</linearGradient>
</defs>
</svg>
